<?xml version="1.0" encoding="utf-8"?>
<!-- Generator: Adobe Illustrator 18.1.1, SVG Export Plug-In . SVG Version: 6.00 Build 0)  -->
<svg version="1.1" id="Layer_1" xmlns="http://www.w3.org/2000/svg" xmlns:xlink="http://www.w3.org/1999/xlink" x="0px" y="0px"
	 viewBox="0 0 16 16" enable-background="new 0 0 16 16" xml:space="preserve">
<path fill="#231F20" d="M8.008,3.637l0.987,2.015l0.453,0.924l1.015,0.169l2.329,0.389l-1.721,1.802l-0.677,0.709l0.145,0.969
	l0.361,2.404l-1.961-1.04l-0.939-0.498l-0.938,0.498l-1.959,1.039l0.362-2.402l0.146-0.97L4.933,8.936l-1.72-1.8l2.354-0.39
	l1.025-0.17l0.451-0.935L8.008,3.637 M8,0C7.72,0,7.439,0.217,7.227,0.651L5.239,4.773l-4.341,0.72
	c-0.959,0.159-1.197,0.863-0.53,1.563l3.118,3.262l-0.691,4.589C2.689,15.596,2.966,16,3.453,16c0.185,0,0.4-0.058,0.636-0.181
	l3.912-2.075l3.911,2.075C12.148,15.942,12.363,16,12.548,16c0.487,0,0.763-0.404,0.66-1.094l-0.688-4.589l3.114-3.259
	c0.667-0.703,0.429-1.406-0.531-1.566l-4.309-0.72l-2.02-4.122C8.561,0.217,8.281,0,8,0L8,0z"/>
</svg>
