<?xml version="1.0" encoding="utf-8"?>
<!-- Generator: Adobe Illustrator 18.1.1, SVG Export Plug-In . SVG Version: 6.00 Build 0)  -->
<svg version="1.1" id="Layer_1" xmlns="http://www.w3.org/2000/svg" xmlns:xlink="http://www.w3.org/1999/xlink" x="0px" y="0px"
	 viewBox="0 0 16 16" enable-background="new 0 0 16 16" xml:space="preserve">
<g>
	<path fill="#808080" d="M16,3.045c-0.455,0.663-1.002,1.229-1.645,1.696c0.006,0.095,0.01,0.237,0.01,0.426
		c0,0.879-0.129,1.758-0.386,2.634c-0.258,0.877-0.648,1.718-1.173,2.523c-0.524,0.806-1.149,1.518-1.873,2.137
		c-0.724,0.62-1.597,1.113-2.619,1.483c-1.023,0.369-2.116,0.553-3.279,0.553c-1.834,0-3.513-0.491-5.035-1.472
		c0.237,0.027,0.5,0.041,0.792,0.041c1.522,0,2.88-0.467,4.07-1.401c-0.711-0.013-1.346-0.232-1.908-0.655
		c-0.561-0.423-0.948-0.962-1.158-1.619c0.224,0.034,0.431,0.05,0.62,0.05c0.29,0,0.579-0.037,0.863-0.112
		C2.521,9.174,1.894,8.797,1.396,8.198S0.65,6.904,0.65,6.112V6.071c0.459,0.258,0.953,0.396,1.482,0.416
		C1.685,6.189,1.33,5.801,1.066,5.32c-0.265-0.48-0.397-1.002-0.397-1.563c0-0.595,0.15-1.147,0.447-1.654
		C1.935,3.11,2.931,3.917,4.105,4.523s2.432,0.942,3.772,1.01C7.823,5.276,7.796,5.026,7.796,4.781c0-0.907,0.32-1.68,0.959-2.319
		c0.64-0.64,1.412-0.959,2.32-0.959c0.948,0,1.746,0.345,2.395,1.036c0.737-0.142,1.432-0.406,2.082-0.792
		c-0.25,0.778-0.731,1.381-1.442,1.807C14.74,3.486,15.369,3.316,16,3.045z"/>
</g>
</svg>
