<?xml version="1.0" encoding="utf-8"?>
<!-- Generator: Adobe Illustrator 18.1.1, SVG Export Plug-In . SVG Version: 6.00 Build 0)  -->
<svg version="1.1" id="Layer_1" xmlns="http://www.w3.org/2000/svg" xmlns:xlink="http://www.w3.org/1999/xlink" x="0px" y="0px"
	 viewBox="0 0 16 16" enable-background="new 0 0 16 16" xml:space="preserve">
<g>
	<path fill="#808080" d="M16,3v10c0,0.826-0.293,1.533-0.88,2.119C14.533,15.707,13.826,16,13,16H3c-0.826,0-1.534-0.293-2.12-0.881
		C0.293,14.533,0,13.827,0,13V3c0-0.826,0.293-1.533,0.88-2.119C1.467,0.293,2.174,0,3,0h10c0.826,0,1.534,0.293,2.12,0.881
		C15.707,1.467,16,2.173,16,3z M5.031,3.937c-0.007-0.36-0.132-0.659-0.375-0.896C4.413,2.805,4.09,2.687,3.688,2.687
		c-0.403,0-0.731,0.118-0.984,0.354C2.45,3.278,2.323,3.577,2.323,3.937c0,0.354,0.123,0.652,0.37,0.89
		c0.247,0.24,0.568,0.36,0.964,0.36h0.01c0.41,0,0.74-0.12,0.99-0.36C4.906,4.589,5.031,4.291,5.031,3.937z M2.469,13.395h2.406
		V6.167H2.469V13.395z M11.125,13.395h2.406V9.249c0-1.069-0.254-1.878-0.76-2.426C12.264,6.275,11.594,6,10.761,6
		C9.816,6,9.09,6.406,8.584,7.218h0.021V6.167H6.198c0.021,0.457,0.021,2.868,0,7.228h2.406V9.354c0-0.264,0.024-0.459,0.073-0.583
		c0.104-0.243,0.261-0.45,0.469-0.62c0.208-0.17,0.466-0.255,0.771-0.255c0.805,0,1.208,0.545,1.208,1.635V13.395z"/>
</g>
</svg>
