<?xml version="1.0" encoding="utf-8"?>
<!-- Generator: Adobe Illustrator 18.1.1, SVG Export Plug-In . SVG Version: 6.00 Build 0)  -->
<svg version="1.1" id="Layer_1" xmlns="http://www.w3.org/2000/svg" xmlns:xlink="http://www.w3.org/1999/xlink" x="0px" y="0px"
	 viewBox="0 0 16 16" enable-background="new 0 0 16 16" xml:space="preserve">
<g>
	<path fill="#808080" d="M14.545,1.819v12.363c0,0.5-0.178,0.928-0.534,1.284S13.227,16,12.727,16H3.273
		c-0.5,0-0.928-0.177-1.283-0.534c-0.356-0.356-0.534-0.784-0.534-1.284V1.819c0-0.5,0.178-0.928,0.534-1.284
		C2.344,0.178,2.773,0,3.273,0h9.455c0.5,0,0.927,0.178,1.283,0.534S14.545,1.318,14.545,1.819z M13.09,12.727V1.819
		c0-0.099-0.036-0.184-0.108-0.256s-0.157-0.108-0.255-0.108H3.273c-0.099,0-0.184,0.036-0.255,0.108
		C2.945,1.635,2.909,1.72,2.909,1.819v10.908c0,0.099,0.036,0.184,0.109,0.255c0.071,0.073,0.157,0.109,0.255,0.109h9.455
		c0.098,0,0.183-0.036,0.255-0.109C13.055,12.911,13.09,12.827,13.09,12.727z M8.512,15.057c0.143-0.144,0.215-0.315,0.215-0.512
		s-0.072-0.366-0.215-0.51C8.367,13.89,8.197,13.818,8,13.818c-0.196,0-0.367,0.073-0.511,0.217
		c-0.144,0.144-0.215,0.313-0.215,0.51s0.071,0.368,0.215,0.512S7.803,15.273,8,15.273C8.197,15.273,8.367,15.201,8.512,15.057z"/>
</g>
</svg>
