<?xml version="1.0" encoding="utf-8"?>
<!-- Generator: Adobe Illustrator 18.1.1, SVG Export Plug-In . SVG Version: 6.00 Build 0)  -->
<svg version="1.1" id="Layer_1" xmlns="http://www.w3.org/2000/svg" xmlns:xlink="http://www.w3.org/1999/xlink" x="0px" y="0px"
	 viewBox="0 0 16 16" enable-background="new 0 0 16 16" xml:space="preserve">
<g>
	<path fill="#808080" d="M13.866,3.2c0.589,0,1.093,0.208,1.508,0.625C15.791,4.242,16,4.745,16,5.334V12.8
		c0,0.589-0.209,1.091-0.626,1.508c-0.416,0.417-0.919,0.625-1.508,0.625H2.133c-0.588,0-1.091-0.208-1.508-0.625
		C0.208,13.892,0,13.389,0,12.8V5.334c0-0.589,0.208-1.092,0.625-1.509C1.041,3.409,1.545,3.2,2.133,3.2h1.867l0.425-1.133
		C4.53,1.795,4.724,1.56,5.004,1.363c0.28-0.197,0.568-0.296,0.862-0.296h4.267c0.295,0,0.582,0.098,0.863,0.296
		c0.281,0.197,0.474,0.432,0.58,0.704L11.999,3.2H13.866z M5.363,11.704C6.093,12.435,6.972,12.8,8,12.8s1.907-0.365,2.637-1.096
		c0.73-0.73,1.096-1.61,1.096-2.637c0-1.028-0.366-1.907-1.096-2.638S9.028,5.334,8,5.334S6.093,5.699,5.363,6.429
		c-0.732,0.73-1.096,1.61-1.096,2.638C4.267,10.094,4.631,10.974,5.363,11.704z M6.304,7.371C6.774,6.901,7.339,6.667,8,6.667
		s1.226,0.235,1.695,0.704C10.166,7.84,10.4,8.406,10.4,9.067s-0.235,1.226-0.705,1.695C9.226,11.232,8.661,11.467,8,11.467
		s-1.226-0.235-1.696-0.704C5.834,10.293,5.6,9.728,5.6,9.067S5.834,7.84,6.304,7.371z"/>
</g>
</svg>
