<?xml version="1.0" encoding="utf-8"?>
<!-- Generator: Adobe Illustrator 18.1.1, SVG Export Plug-In . SVG Version: 6.00 Build 0)  -->
<svg version="1.1" id="Layer_1" xmlns="http://www.w3.org/2000/svg" xmlns:xlink="http://www.w3.org/1999/xlink" x="0px" y="0px"
	 viewBox="0 0 16 16" enable-background="new 0 0 16 16" xml:space="preserve">
<path fill="#231F20" d="M8,0C7.719,0,7.438,0.217,7.225,0.651L5.233,4.773l-4.35,0.72c-0.961,0.159-1.199,0.862-0.531,1.562
	l3.124,3.262l-0.692,4.589C2.679,15.596,2.957,16,3.444,16c0.185,0,0.401-0.058,0.637-0.181L8,13.744l3.919,2.075
	C12.156,15.942,12.372,16,12.557,16c0.487,0,0.764-0.404,0.661-1.094l-0.69-4.589l3.12-3.259c0.668-0.703,0.43-1.406-0.532-1.566
	l-4.317-0.72L8.775,0.651C8.562,0.217,8.281,0,8,0L8,0z"/>
</svg>
