<?xml version="1.0" encoding="utf-8"?>
<!-- Generator: Adobe Illustrator 18.1.1, SVG Export Plug-In . SVG Version: 6.00 Build 0)  -->
<svg version="1.1" id="Layer_1" xmlns="http://www.w3.org/2000/svg" xmlns:xlink="http://www.w3.org/1999/xlink" x="0px" y="0px"
	 viewBox="0 0 16 16" enable-background="new 0 0 16 16" xml:space="preserve">
<g>
	<g>
		<path fill-rule="evenodd" clip-rule="evenodd" fill="#808080" d="M8,0.5c-4.418,0-8,3.134-8,7c0,2.022,0.986,3.839,2.553,5.116
			c-0.079,0.268-0.186,0.56-0.339,0.871C1.496,14.951,1,15.5,1,15.5s1.803-0.34,3.339-1.104c0.275-0.137,0.498-0.269,0.7-0.397
			C5.955,14.319,6.953,14.5,8,14.5c4.418,0,8-3.134,8-7C16,3.634,12.418,0.5,8,0.5z M10.5,4.438c0.725,0,1.312,0.588,1.312,1.312
			S11.225,7.062,10.5,7.062S9.187,6.475,9.187,5.75S9.775,4.438,10.5,4.438z M5.5,4.438c0.725,0,1.312,0.588,1.312,1.312
			S6.225,7.062,5.5,7.062S4.187,6.475,4.187,5.75S4.775,4.438,5.5,4.438z M8,12.05c-4.065,0-5-3.55-5-3.55s2.115,1,5,1
			c2.84,0,5-1,5-1S12.065,12.05,8,12.05z"/>
	</g>
</g>
</svg>
