<?xml version="1.0" encoding="utf-8"?>
<!-- Generator: Adobe Illustrator 18.1.1, SVG Export Plug-In . SVG Version: 6.00 Build 0)  -->
<svg version="1.1" id="Layer_1" xmlns="http://www.w3.org/2000/svg" xmlns:xlink="http://www.w3.org/1999/xlink" x="0px" y="0px"
	 viewBox="0 0 16 16" enable-background="new 0 0 16 16" xml:space="preserve">
<path fill="#808080" d="M15.921,1.785c-0.208-0.574-0.756-0.96-1.364-0.96h-0.008h-1.377H1.451c-0.598,0-1.143,0.378-1.356,0.94
	C0.032,1.932,0,2.106,0,2.282v4.849l0.055,0.964c0.232,2.193,1.365,4.11,3.119,5.446c0.031,0.024,0.063,0.048,0.095,0.071
	l0.02,0.014c0.94,0.69,1.993,1.158,3.128,1.388c0.524,0.107,1.06,0.161,1.593,0.161c0.492,0,0.986-0.045,1.472-0.136
	c0.058-0.011,0.116-0.022,0.175-0.035C9.673,15,9.69,14.994,9.708,14.985c1.087-0.239,2.097-0.694,3.002-1.359l0.02-0.014
	c0.032-0.024,0.064-0.047,0.096-0.071c1.753-1.336,2.887-3.253,3.119-5.446L16,7.131V2.282C16,2.114,15.98,1.948,15.921,1.785z
	 M12.533,6.835L8.77,10.461c-0.212,0.204-0.486,0.307-0.759,0.307c-0.274,0-0.547-0.102-0.759-0.307L3.488,6.835
	C3.05,6.414,3.036,5.717,3.455,5.278c0.419-0.44,1.114-0.454,1.551-0.033L8.01,8.139l3.004-2.894
	c0.437-0.421,1.131-0.407,1.551,0.032C12.985,5.717,12.97,6.414,12.533,6.835z"/>
</svg>
