<?xml version="1.0" encoding="utf-8"?>
<!-- Generator: Adobe Illustrator 18.1.1, SVG Export Plug-In . SVG Version: 6.00 Build 0)  -->
<svg version="1.1" id="Layer_1" xmlns="http://www.w3.org/2000/svg" xmlns:xlink="http://www.w3.org/1999/xlink" x="0px" y="0px"
	 viewBox="0 0 16 16" enable-background="new 0 0 16 16" xml:space="preserve">
<g>
	<path fill="#808080" d="M15.114,0c0.243,0,0.451,0.087,0.624,0.261C15.912,0.435,16,0.643,16,0.886v14.229
		c0,0.243-0.088,0.451-0.261,0.625C15.566,15.913,15.357,16,15.114,16h-4.073V9.802h2.072l0.313-2.416h-2.385V5.844
		c0-0.389,0.081-0.681,0.245-0.875c0.163-0.194,0.48-0.292,0.952-0.292l1.271-0.011V2.511c-0.437-0.062-1.056-0.093-1.855-0.093
		c-0.945,0-1.7,0.278-2.265,0.833C8.824,3.806,8.542,4.591,8.542,5.605v1.781H6.457v2.416h2.084V16H0.886
		c-0.243,0-0.451-0.087-0.626-0.26C0.087,15.566,0,15.358,0,15.115V0.886c0-0.243,0.087-0.451,0.26-0.625
		C0.434,0.088,0.643,0,0.886,0H15.114z"/>
</g>
</svg>
